<?xml version="1.0" encoding="UTF-8"?>
<svg width="500px" height="58px" viewBox="0 0 500 58" version="1.1" xmlns="http://www.w3.org/2000/svg" xmlns:xlink="http://www.w3.org/1999/xlink">
    <title>simple</title>
    <defs>
        <polygon id="path-1" points="0 57.8994 500 57.8994 500 0.0004 0 0.0004"></polygon>
    </defs>
    <g id="Page-1" stroke="none" stroke-width="1" fill="none" fill-rule="evenodd">
        <g id="simple">
            <path d="M0.0002,41.1901 L3.2472,36.0511 C5.5462,38.4191 10.0762,40.6501 14.3382,40.6501 C18.5982,40.6501 20.7632,38.8221 20.7632,36.2551 C20.7632,29.8281 1.0132,34.4271 1.0132,21.9141 C1.0132,16.5721 5.6122,11.9731 13.8652,11.9731 C19.4112,11.9731 23.6042,13.9341 26.5822,16.5721 L23.6042,21.5781 C21.6442,19.3421 17.9902,17.6511 13.9312,17.6511 C10.2132,17.6511 7.8452,19.3421 7.8452,21.6441 C7.8452,27.4601 27.5952,23.1311 27.5952,36.1181 C27.5952,41.8671 22.7922,46.2621 14.0002,46.2621 C8.4542,46.2621 3.3812,44.5051 0.0002,41.1901 Z" id="Fill-1" fill="#000000"></path>
            <mask id="mask-2" fill="white">
                <use xlink:href="#path-1"></use>
            </mask>
            <g id="Clip-4"></g>
            <path d="M34.782,45.4524 L41.884,45.4524 L41.884,12.7824 L34.782,12.7824 L34.782,45.4524 Z M33.904,4.3944 C33.904,1.9604 35.933,0.0004 38.301,0.0004 C40.736,0.0004 42.696,1.9604 42.696,4.3944 C42.696,6.8294 40.736,8.7954 38.301,8.7954 C35.933,8.7954 33.904,6.8294 33.904,4.3944 L33.904,4.3944 Z" id="Fill-3" fill="#000000" mask="url(#mask-2)"></path>
            <path d="M91.1311,45.4528 L91.1311,24.1448 C91.1311,20.6308 89.5751,18.2628 85.7891,18.2628 C82.6091,18.2628 79.6341,20.4938 78.2141,22.5918 L78.2141,45.4528 L71.1111,45.4528 L71.1111,24.1448 C71.1111,20.6308 69.5561,18.2628 65.7011,18.2628 C62.5891,18.2628 59.6811,20.4938 58.1911,22.6578 L58.1911,45.4528 L51.0891,45.4528 L51.0891,12.7828 L58.1911,12.7828 L58.1911,17.2488 C59.5461,15.2168 63.8751,11.9738 68.8121,11.9738 C73.6811,11.9738 76.6581,14.4078 77.7401,17.9928 C79.6341,15.0138 83.9631,11.9738 88.8321,11.9738 C94.8511,11.9738 98.2331,15.2168 98.2331,21.8478 L98.2331,45.4528 L91.1311,45.4528 Z" id="Fill-5" fill="#000000" mask="url(#mask-2)"></path>
            <path d="M132.153,29.0846 C132.153,22.7946 128.568,18.2626 122.953,18.2626 C119.64,18.2626 116.121,20.2236 114.565,22.6576 L114.565,35.5776 C116.121,37.9456 119.64,39.9726 122.953,39.9726 C128.568,39.9726 132.153,35.4396 132.153,29.0846 M114.565,40.9196 L114.565,57.8996 L107.464,57.8996 L107.464,12.7826 L114.565,12.7826 L114.565,17.2496 C117.002,13.9996 120.789,11.9736 125.049,11.9736 C133.505,11.9736 139.525,18.3286 139.525,29.0846 C139.525,39.8406 133.505,46.2626 125.049,46.2626 C120.924,46.2626 117.203,44.4386 114.565,40.9196" id="Fill-6" fill="#000000" mask="url(#mask-2)"></path>
            <polygon id="Fill-7" fill="#000000" mask="url(#mask-2)" points="146.577 45.4534 153.679 45.4534 153.679 0.3364 146.577 0.3364"></polygon>
            <path d="M177.4294,17.7887 C171.3444,17.7887 168.5684,22.4537 168.2324,26.4467 L186.6294,26.4467 C186.4944,22.5917 183.8564,17.7887 177.4294,17.7887 M160.8574,29.0847 C160.8574,19.6177 167.7584,11.9737 177.4294,11.9737 C187.2384,11.9737 193.5274,19.4797 193.5274,29.7617 L193.5274,31.4527 L168.2984,31.4527 C168.8404,36.3877 172.5614,40.4467 178.7154,40.4467 C181.8934,40.4467 185.6824,39.1637 187.9814,36.8607 L191.2284,41.5317 C187.9814,44.6427 183.1794,46.2627 177.9714,46.2627 C168.1634,46.2627 160.8574,39.4337 160.8574,29.0847" id="Fill-8" fill="#000000" mask="url(#mask-2)"></path>
            <path d="M217.8083,44.4391 C225.7913,44.4391 230.1863,37.7421 230.1863,29.1501 C230.1863,20.5591 225.7913,13.7961 217.8083,13.7961 C212.7363,13.7961 208.0683,16.9791 206.0393,20.4271 L206.0393,37.9461 C208.0683,41.3941 212.7363,44.4391 217.8083,44.4391 L217.8083,44.4391 Z M204.0093,45.4531 L204.0093,0.3361 L206.0393,0.3361 L206.0393,18.4001 C208.6773,14.5401 212.9403,11.9731 217.8083,11.9731 C226.6013,11.9731 232.4193,18.8681 232.4193,29.1501 C232.4193,39.4991 226.6013,46.2621 217.8083,46.2621 C212.6673,46.2621 208.2723,43.3541 206.0393,39.9731 L206.0393,45.4531 L204.0093,45.4531 Z" id="Fill-9" fill="#000000" mask="url(#mask-2)"></path>
            <path d="M268.7604,29.0846 C268.7604,21.1706 264.1614,13.7956 255.7734,13.7956 C247.4544,13.7956 242.7874,21.1706 242.7874,29.0846 C242.7874,37.0646 247.4544,44.4386 255.7734,44.4386 C264.1614,44.4386 268.7604,37.0646 268.7604,29.0846 M240.5564,29.0846 C240.5564,19.4796 246.5764,11.9736 255.7734,11.9736 C265.0394,11.9736 270.9934,19.4796 270.9934,29.0846 C270.9934,38.6896 265.0394,46.2626 255.7734,46.2626 C246.5764,46.2626 240.5564,38.6896 240.5564,29.0846" id="Fill-10" fill="#000000" mask="url(#mask-2)"></path>
            <path d="M280.887,45.4524 L282.916,45.4524 L282.916,12.7824 L280.887,12.7824 L280.887,45.4524 Z M279.94,5.2104 C279.94,4.1254 280.887,3.2434 281.904,3.2434 C282.986,3.2434 283.864,4.1254 283.864,5.2104 C283.864,6.2894 282.986,7.1704 281.904,7.1704 C280.887,7.1704 279.94,6.2894 279.94,5.2104 L279.94,5.2104 Z" id="Fill-11" fill="#000000" mask="url(#mask-2)"></path>
            <polygon id="Fill-12" fill="#000000" mask="url(#mask-2)" points="294.557 45.4534 296.586 45.4534 296.586 0.3364 294.557 0.3364"></polygon>
            <path d="M321.7556,13.796 C313.3676,13.796 308.9726,21.506 308.7696,27.934 L334.8086,27.934 C334.8086,21.644 330.6836,13.796 321.7556,13.796 M306.4696,29.085 C306.4696,19.617 313.0286,11.973 321.8206,11.973 C331.8336,11.973 336.9726,20.02 336.9726,29.085 L336.9726,29.762 L308.7696,29.762 C308.9726,37.742 314.1806,44.439 322.4986,44.439 C327.0976,44.439 330.8186,42.749 333.8626,39.499 L335.0806,40.788 C331.7656,44.235 327.9796,46.262 322.4986,46.262 C313.0286,46.262 306.4696,39.025 306.4696,29.085" id="Fill-13" fill="#000000" mask="url(#mask-2)"></path>
            <path d="M346.8688,45.4528 L346.8688,12.7828 L348.8988,12.7828 L348.8988,18.7358 C351.8058,14.8808 355.3918,12.1768 360.1288,12.1768 L360.1288,14.6108 C359.5188,14.5398 359.1118,14.5398 358.5038,14.5398 C355.0538,14.5398 350.3888,17.9268 348.8988,20.9668 L348.8988,45.4528 L346.8688,45.4528 Z" id="Fill-14" fill="#000000" mask="url(#mask-2)"></path>
            <path d="M393.6188,29.0846 C393.6188,20.4936 389.2238,13.7956 381.2408,13.7956 C376.1688,13.7956 371.5008,16.8416 369.4718,20.2896 L369.4718,37.8086 C371.5008,41.2616 376.1688,44.4386 381.2408,44.4386 C389.2238,44.4386 393.6188,37.6766 393.6188,29.0846 M369.4718,39.8406 L369.4718,57.8996 L367.4418,57.8996 L367.4418,12.7826 L369.4718,12.7826 L369.4718,18.2626 C371.7048,14.8806 376.0988,11.9736 381.2408,11.9736 C390.0338,11.9736 395.8518,18.7356 395.8518,29.0846 C395.8518,39.3666 390.0338,46.2626 381.2408,46.2626 C376.3728,46.2626 372.1098,43.6956 369.4718,39.8406" id="Fill-15" fill="#000000" mask="url(#mask-2)"></path>
            <polygon id="Fill-16" fill="#000000" mask="url(#mask-2)" points="405.476 45.4534 407.505 45.4534 407.505 0.3364 405.476 0.3364"></polygon>
            <path d="M440.2497,39.4332 L440.2497,31.3152 C437.7467,27.9992 433.7567,26.3082 429.4937,26.3082 C423.5437,26.3082 419.7547,30.3022 419.7547,35.3742 C419.7547,40.4462 423.5437,44.4392 429.4937,44.4392 C433.7567,44.4392 437.7467,42.7482 440.2497,39.4332 L440.2497,39.4332 Z M440.2497,45.4532 L440.2497,41.4592 C437.2077,44.7752 433.5537,46.2622 428.9547,46.2622 C423.2047,46.2622 417.5237,42.3412 417.5237,35.3742 C417.5237,28.4072 423.1387,24.4862 428.9547,24.4862 C433.5537,24.4862 437.2077,25.9732 440.2497,29.2882 L440.2497,21.9142 C440.2497,16.6382 436.0567,13.7962 431.0497,13.7962 C426.7897,13.7962 423.6117,15.2882 420.5657,18.9402 L419.0107,17.5852 C422.1907,13.8682 425.5727,11.9732 431.0497,11.9732 C437.4777,11.9732 442.2797,15.2172 442.2797,21.8482 L442.2797,45.4532 L440.2497,45.4532 Z" id="Fill-17" fill="#000000" mask="url(#mask-2)"></path>
            <path d="M454.3376,39.7028 L454.3376,14.6108 L448.9276,14.6108 L448.9276,12.7828 L454.3376,12.7828 L454.3376,3.8548 L456.3676,3.8548 L456.3676,12.7828 L462.9956,12.7828 L462.9956,14.6108 L456.3676,14.6108 L456.3676,39.7028 C456.3676,42.4788 457.4496,44.4388 459.8846,44.4388 C461.5056,44.4388 462.9266,43.6238 463.7386,42.6768 L464.9566,44.2358 C463.6706,45.4528 462.3176,46.2628 459.8846,46.2628 C456.0946,46.2628 454.3376,43.7618 454.3376,39.7028" id="Fill-18" fill="#000000" mask="url(#mask-2)"></path>
            <path d="M484.7829,13.796 C476.3949,13.796 472.0009,21.506 471.7969,27.934 L497.8359,27.934 C497.8359,21.644 493.7109,13.796 484.7829,13.796 M469.4969,29.085 C469.4969,19.617 476.0559,11.973 484.8489,11.973 C494.8619,11.973 499.9999,20.02 499.9999,29.085 L499.9999,29.762 L471.7969,29.762 C472.0009,37.742 477.2079,44.439 485.5259,44.439 C490.1259,44.439 493.8459,42.749 496.8909,39.499 L498.1079,40.788 C494.7929,44.235 491.0069,46.262 485.5259,46.262 C476.0559,46.262 469.4969,39.025 469.4969,29.085" id="Fill-19" fill="#000000" mask="url(#mask-2)"></path>
        </g>
    </g>
</svg>
